<svg width="24" height="24" viewBox="0 0 24 24" fill="none" xmlns="http://www.w3.org/2000/svg">
<path fill-rule="evenodd" clip-rule="evenodd" d="M3 3C3 2.20435 3.31607 1.44129 3.87868 0.87868C4.44129 0.316071 5.20435 0 6 0L13.9395 0C14.3373 8.49561e-05 14.7188 0.158176 15 0.4395L20.5605 6C20.8418 6.28124 20.9999 6.66271 21 7.0605V21C21 21.7957 20.6839 22.5587 20.1213 23.1213C19.5587 23.6839 18.7956 24 18 24H6C5.20435 24 4.44129 23.6839 3.87868 23.1213C3.31607 22.5587 3 21.7957 3 21V3ZM14.25 5.25V2.25L18.75 6.75H15.75C15.3522 6.75 14.9706 6.59196 14.6893 6.31066C14.408 6.02936 14.25 5.64782 14.25 5.25ZM16.281 11.781C16.4218 11.6402 16.5009 11.4492 16.5009 11.25C16.5009 11.0508 16.4218 10.8598 16.281 10.719C16.1402 10.5782 15.9492 10.4991 15.75 10.4991C15.5508 10.4991 15.3598 10.5782 15.219 10.719L11.25 14.6895L9.531 12.969C9.39017 12.8282 9.19916 12.7491 9 12.7491C8.80084 12.7491 8.60983 12.8282 8.469 12.969C8.32817 13.1098 8.24905 13.3008 8.24905 13.5C8.24905 13.6992 8.32817 13.8902 8.469 14.031L10.719 16.281C10.7887 16.3508 10.8714 16.4063 10.9625 16.4441C11.0537 16.4819 11.1513 16.5013 11.25 16.5013C11.3487 16.5013 11.4463 16.4819 11.5375 16.4441C11.6286 16.4063 11.7113 16.3508 11.781 16.281L16.281 11.781Z" fill="#495057"/>
<path d="M16.281 11.781C16.4218 11.6402 16.5009 11.4492 16.5009 11.25C16.5009 11.0508 16.4218 10.8598 16.281 10.719C16.1402 10.5782 15.9492 10.4991 15.75 10.4991C15.5508 10.4991 15.3598 10.5782 15.219 10.719L11.25 14.6895L9.531 12.969C9.39017 12.8282 9.19916 12.7491 9 12.7491C8.80084 12.7491 8.60983 12.8282 8.469 12.969C8.32817 13.1098 8.24905 13.3008 8.24905 13.5C8.24905 13.6992 8.32817 13.8902 8.469 14.031L10.719 16.281C10.7887 16.3508 10.8714 16.4063 10.9625 16.4441C11.0537 16.4819 11.1513 16.5013 11.25 16.5013C11.3487 16.5013 11.4463 16.4819 11.5375 16.4441C11.6286 16.4063 11.7113 16.3508 11.781 16.281L16.281 11.781Z" fill="#495057"/>
</svg>
