<svg width="24" height="24" viewBox="0 0 24 24" fill="none" xmlns="http://www.w3.org/2000/svg">
<path fill-rule="evenodd" clip-rule="evenodd" d="M0 15C0 14.2044 0.316071 13.4413 0.87868 12.8787C1.44129 12.3161 2.20435 12 3 12H21C21.7956 12 22.5587 12.3161 23.1213 12.8787C23.6839 13.4413 24 14.2044 24 15V16.5C24 17.2956 23.6839 18.0587 23.1213 18.6213C22.5587 19.1839 21.7956 19.5 21 19.5H3C2.20435 19.5 1.44129 19.1839 0.87868 18.6213C0.316071 18.0587 0 17.2956 0 16.5V15ZM3.75 16.5C3.94891 16.5 4.13968 16.421 4.28033 16.2803C4.42098 16.1397 4.5 15.9489 4.5 15.75C4.5 15.5511 4.42098 15.3603 4.28033 15.2197C4.13968 15.079 3.94891 15 3.75 15C3.55109 15 3.36032 15.079 3.21967 15.2197C3.07902 15.3603 3 15.5511 3 15.75C3 15.9489 3.07902 16.1397 3.21967 16.2803C3.36032 16.421 3.55109 16.5 3.75 16.5ZM6.75 16.5C6.94891 16.5 7.13968 16.421 7.28033 16.2803C7.42098 16.1397 7.5 15.9489 7.5 15.75C7.5 15.5511 7.42098 15.3603 7.28033 15.2197C7.13968 15.079 6.94891 15 6.75 15C6.55109 15 6.36032 15.079 6.21967 15.2197C6.07902 15.3603 6 15.5511 6 15.75C6 15.9489 6.07902 16.1397 6.21967 16.2803C6.36032 16.421 6.55109 16.5 6.75 16.5Z" fill="#ADB5BD"/>
<path d="M1.36523 10.806C1.88642 10.603 2.44093 10.4993 3.00023 10.5H21.0002C21.5762 10.5 22.1282 10.608 22.6352 10.806L19.8347 5.673C19.6412 5.31803 19.3556 5.02176 19.008 4.81535C18.6604 4.60893 18.2635 4.5 17.8592 4.5H6.14123C5.73694 4.5 5.34011 4.60893 4.99248 4.81535C4.64485 5.02176 4.35926 5.31803 4.16573 5.673L1.36523 10.806Z" fill="#ADB5BD"/>
</svg>
