<svg width="24" height="24" viewBox="0 0 24 24" fill="none" xmlns="http://www.w3.org/2000/svg">
<path d="M9.75 16.4929V21.7504C9.75 21.9493 9.67098 22.14 9.53033 22.2807C9.38968 22.4213 9.19891 22.5004 9 22.5004H3C2.80109 22.5004 2.61032 22.4213 2.46967 22.2807C2.32902 22.14 2.25 21.9493 2.25 21.7504V11.2504C2.24983 11.1518 2.26908 11.0542 2.30665 10.9631C2.34423 10.872 2.3994 10.7891 2.469 10.7194L11.469 1.71936C11.5387 1.64952 11.6214 1.5941 11.7126 1.5563C11.8037 1.51849 11.9014 1.49902 12 1.49902C12.0987 1.49902 12.1963 1.51849 12.2875 1.5563C12.3786 1.5941 12.4613 1.64952 12.531 1.71936L21.531 10.7194C21.6006 10.7891 21.6558 10.872 21.6933 10.9631C21.7309 11.0542 21.7502 11.1518 21.75 11.2504V21.7504C21.75 21.9493 21.671 22.14 21.5303 22.2807C21.3897 22.4213 21.1989 22.5004 21 22.5004H15C14.8011 22.5004 14.6103 22.4213 14.4697 22.2807C14.329 22.14 14.25 21.9493 14.25 21.7504V16.5004C14.25 16.1254 13.875 15.7504 13.5 15.7504H10.5C10.125 15.7504 9.75 16.1254 9.75 16.4929Z" fill="#ADB5BD"/>
<path fill-rule="evenodd" clip-rule="evenodd" d="M19.5 3.75V9L16.5 6V3.75C16.5 3.55109 16.579 3.36032 16.7197 3.21967C16.8603 3.07902 17.0511 3 17.25 3H18.75C18.9489 3 19.1397 3.07902 19.2803 3.21967C19.421 3.36032 19.5 3.55109 19.5 3.75Z" fill="#ADB5BD"/>
</svg>
